<svg width="80" height="80" fill="none" xmlns="http://www.w3.org/2000/svg"><path d="M71.563 22.75c2.8 5.123 4.394 11 4.394 17.25 0 13.263-7.187 24.853-17.877 31.083l10.983-31.756c2.05-5.134 2.734-9.237 2.734-12.88 0-1.35-.087-2.6-.234-3.7v.003Zm-26.603.347c2.157-.1 4.107-.35 4.107-.35 1.94-.25 1.713-3.1-.224-2.997 0 0-5.85.45-9.6.45-3.546 0-9.5-.5-9.5-.5-1.95-.1-2.203 2.85-.25 2.95 0 0 1.8.203 3.75.3l5.6 15.35-7.9 23.6L17.847 23c2.163-.1 4.113-.333 4.113-.333 1.95-.25 1.72-3.1-.217-2.987 0 0-5.82.46-9.58.46-.666 0-1.46-.027-2.3-.05C16.37 10.5 27.45 4.05 40 4.05c9.363 0 17.883 3.573 24.287 9.443-.154-.01-.304-.03-.47-.03-3.534 0-6.04 3.077-6.04 6.38 0 2.967 1.71 5.477 3.533 8.437 1.37 2.4 2.967 5.477 2.967 9.923 0 3.05-1.18 6.647-2.737 11.597l-3.583 11.95-13-38.7.003.047ZM40 75.947c-3.53 0-6.937-.51-10.16-1.457l10.79-31.353 11.05 30.29c.08.176.167.336.26.496A35.991 35.991 0 0 1 40 75.953v-.006ZM4.037 40c0-5.213 1.12-10.167 3.116-14.633L24.3 72.363C12.313 66.533 4.04 54.237 4.037 40ZM40 0C17.95 0 0 17.95 0 40s17.95 40 40 40 40-17.95 40-40S62.05 0 40 0Z" fill="#21759B"/></svg>