<svg width="76" height="80" fill="none" xmlns="http://www.w3.org/2000/svg"><path d="M58.458 26.433v-9.487c2.49-1.192 4.184-3.692 4.2-6.592v-.225c-.01-4.032-3.26-7.298-7.272-7.311h-.224c-4.013.011-7.264 3.276-7.277 7.306v.224a7.324 7.324 0 0 0 4.111 6.559l.044.019.043.02v9.507c-3.785.595-7.133 2.146-9.89 4.397l.037-.03.04-.03-25.977-20.322c.178-.643.28-1.381.28-2.144C16.573 3.727 12.863 0 8.286 0 3.71 0 0 3.727 0 8.324c0 4.597 3.71 8.324 8.286 8.324a8.22 8.22 0 0 0 4.206-1.15l-.039.02-.04.02 25.54 19.972c-2.158 3.21-3.445 7.166-3.445 11.424v.067-.003c0 4.477 1.41 8.627 3.806 12.02l-.043-.063-7.772 7.808a6.357 6.357 0 0 0-1.92-.317h-.011c-3.726 0-6.746 3.034-6.746 6.777 0 3.743 3.02 6.777 6.746 6.777 3.726 0 6.747-3.034 6.747-6.777a6.614 6.614 0 0 0-.343-2.03l.014.046.013.047 7.69-7.724a20.53 20.53 0 0 0 12.58 4.273C66.72 67.835 76 58.512 76 47.011c0-10.335-7.495-18.912-17.322-20.545l-.12-.017-.1-.016Zm-3.2 31.259c-5.864-.015-10.612-4.794-10.612-10.688 0-5.902 4.764-10.687 10.64-10.687 5.875 0 10.638 4.785 10.638 10.688v.006c-.003 5.9-4.765 10.681-10.639 10.681h-.028.002Z" fill="#FF7A59"/></svg>