<svg width="118" height="82" fill="none" xmlns="http://www.w3.org/2000/svg"><path d="M80.658 9.05a5.44 5.44 0 0 0-1.347.162v.064h.068c.266.512.718.885 1.053 1.343.265.526.491 1.052.757 1.573l.069-.074c.462-.324.688-.846.688-1.637-.197-.231-.226-.462-.393-.688-.197-.33-.62-.492-.895-.743ZM28.369 73.92h-4.558c-.147-7.68-.604-14.897-1.327-21.682h-.04l-6.932 21.683h-3.466L5.163 52.238h-.05c-.506 6.505-.826 13.732-.958 21.683H0c.27-9.667.944-18.733 2.016-27.19H7.67l6.564 19.982h.04l6.622-19.982h5.384c1.19 9.907 1.888 18.979 2.09 27.19Zm19.75-20.06c-1.858 10.055-4.307 17.371-7.335 21.929-2.37 3.52-4.966 5.275-7.783 5.275-.753 0-1.672-.226-2.783-.678v-2.429c.54.084 1.18.128 1.898.128 1.317 0 2.374-.369 3.18-1.091.97-.885 1.451-1.879 1.451-2.975 0-.762-.378-2.31-1.13-4.641L30.63 53.86h4.474l3.575 11.603c.806 2.635 1.145 4.474 1.008 5.521 1.966-5.23 3.333-10.95 4.105-17.124h4.326Zm60.598 20.06h-12.93V46.732h4.351v23.846h8.579v3.344Zm-16.323.664-4.995-2.458c.442-.374.87-.777 1.253-1.23 2.13-2.487 3.186-6.184 3.186-11.076 0-8.998-3.53-13.502-10.595-13.502-3.461 0-6.165 1.141-8.112 3.427-2.115 2.498-3.177 6.176-3.177 11.038 0 4.78.934 8.29 2.823 10.522 1.72 2.016 4.311 3.024 7.782 3.024 1.299 0 2.488-.162 3.565-.482l6.515 3.796 1.755-3.059Zm-16.186-6.106c-1.106-1.77-1.657-4.622-1.657-8.535 0-6.85 2.085-10.276 6.245-10.276 2.178 0 3.785.82 4.803 2.458 1.101 1.78 1.652 4.602 1.652 8.472 0 6.903-2.085 10.364-6.244 10.364-2.188 0-3.786-.821-4.799-2.483Zm-8.152-2.09c0 2.311-.845 4.21-2.537 5.684-1.69 1.475-3.948 2.213-6.804 2.213-2.67 0-5.232-.846-7.734-2.532l1.165-2.34c2.154 1.08 4.096 1.612 5.85 1.612 1.633 0 2.916-.359 3.85-1.082.925-.722 1.476-1.74 1.476-3.023 0-1.623-1.131-3-3.186-4.155-1.908-1.047-5.719-3.23-5.719-3.23-2.074-1.51-3.107-3.127-3.107-5.787 0-2.213.772-3.983 2.311-5.335 1.549-1.367 3.54-2.04 5.998-2.04 2.518 0 4.819.668 6.884 2.016l-1.048 2.34c-1.77-.748-3.515-1.131-5.23-1.131-1.392 0-2.47.334-3.216 1.013-.753.669-1.22 1.524-1.22 2.576 0 1.613 1.15 3 3.275 4.18 1.932 1.056 5.836 3.294 5.836 3.294 2.129 1.5 3.186 3.097 3.156 5.727Zm46.129-28.772c-2.631-.069-4.671.197-6.377.924-.492.197-1.279.197-1.347.821.27.26.309.689.54 1.053.394.658 1.072 1.538 1.702 2 .688.541 1.376 1.063 2.099 1.525 1.278.786 2.729 1.254 3.983 2.045.712.462 1.44 1.047 2.163 1.539.359.246.59.688 1.052.846v-.099c-.226-.295-.295-.722-.516-1.052-.33-.33-.659-.624-.984-.949-.953-1.278-2.138-2.394-3.417-3.319-1.052-.717-3.353-1.72-3.785-2.925l-.064-.069c.717-.064 1.573-.324 2.261-.521 1.116-.295 2.139-.231 3.295-.521a28.277 28.277 0 0 0 1.573-.462v-.295c-.59-.59-1.033-1.392-1.642-1.942-1.672-1.45-3.526-2.862-5.428-4.047-1.033-.659-2.341-1.082-3.427-1.642-.394-.197-1.053-.295-1.279-.625-.59-.717-.934-1.671-1.352-2.527-.944-1.81-1.868-3.81-2.689-5.718-.59-1.288-.95-2.571-1.672-3.751-3.392-5.59-7.065-8.978-12.714-12.292-1.215-.688-2.67-.983-4.209-1.347-.821-.04-1.642-.098-2.458-.133-.541-.231-1.062-.855-1.524-1.155-1.869-1.18-6.707-3.737-8.084-.354-.885 2.133 1.313 4.238 2.075 5.32.566.752 1.279 1.612 1.672 2.458.231.57.295 1.155.526 1.75.521 1.446 1.018 3.058 1.706 4.41.359.688.752 1.411 1.215 2.03.265.36.717.527.82 1.117-.462.669-.491 1.642-.757 2.458-1.18 3.722-.717 8.324.954 11.063.526.816 1.78 2.625 3.457 1.932 1.475-.59 1.15-2.458 1.573-4.106.098-.393.034-.654.236-.919v.074c.462.924.924 1.804 1.347 2.729 1.013 1.612 2.783 3.284 4.263 4.4.787.59 1.41 1.613 2.394 1.976v-.098h-.073c-.212-.285-.492-.423-.758-.654-.59-.59-1.253-1.313-1.72-1.967-1.377-1.853-2.591-3.884-3.673-5.988-.541-1.033-.993-2.144-1.426-3.162-.197-.393-.197-.983-.526-1.18-.492.718-1.215 1.343-1.573 2.228-.625 1.416-.689 3.156-.925 4.966-.132.034-.068 0-.132.068-1.053-.255-1.411-1.347-1.805-2.261-.983-2.336-1.145-6.087-.295-8.777.231-.688 1.215-2.861.821-3.52-.206-.624-.855-.983-1.214-1.49a12.18 12.18 0 0 1-1.18-2.1c-.787-1.838-1.18-3.873-2.036-5.712-.393-.85-1.081-1.74-1.642-2.523-.624-.885-1.313-1.509-1.81-2.556-.162-.36-.392-.954-.132-1.347.069-.266.207-.37.462-.443.433-.354 1.647.108 2.075.305 1.215.492 2.237.954 3.255 1.642.462.325.959.949 1.549 1.111h.688c1.052.231 2.237.069 3.22.36 1.746.56 3.32 1.376 4.73 2.26 4.307 2.735 7.847 6.614 10.251 11.24.394.758.566 1.45.925 2.238.688 1.622 1.539 3.26 2.237 4.828.688 1.548 1.352 3.127 2.34 4.41.492.688 2.468 1.047 3.353 1.406.654.295 1.672.566 2.262.924 1.131.689 2.232 1.475 3.294 2.233.541.373 2.178 1.194 2.277 1.858Z" fill="#4479A1"/></svg>