<svg width="80" height="80" fill="none" xmlns="http://www.w3.org/2000/svg"><path d="M66.667 0H13.333C5.977.02.02 5.977 0 13.333v53.334C0 74 6 80 13.333 80h53.334C74 80 80 74 80 66.667V13.333C80 6 74 0 66.667 0Zm-7.29 56.183a10.397 10.397 0 0 1-3.077 4.114c-1.4 1.133-3.173 2.066-5.357 2.733-2.18.677-4.773 1.017-7.776 1.017h-21.44V17.38H44.4c4.194 0 7.553.943 10.067 2.867 2.533 1.933 3.793 4.813 3.793 8.7 0 2.35-.573 4.366-1.727 6.033-1.146 1.657-2.8 2.953-4.933 3.853v.154c2.847.6 5.05 1.95 6.5 4.05 1.45 2.1 2.194 4.753 2.194 7.956 0 1.794-.347 3.5-1 5.094l.083.096Zm-9.254-11.5c-1.366-1.25-3.286-1.86-5.766-1.86H29.95v14.56h14.447c2.466 0 4.4-.64 5.766-1.933 1.367-1.283 2.067-3.113 2.067-5.467-.023-2.3-.7-4.08-2.067-5.3h-.04Zm-2-9.41c1.32-1.12 1.967-2.723 1.967-4.813 0-2.347-.583-4.013-1.767-4.967-1.173-.95-2.866-1.443-5.093-1.443H29.897v12.877H43.23c1.943 0 3.6-.567 4.893-1.654Z" fill="#563D7C"/></svg>