<svg width="120" height="30" fill="none" xmlns="http://www.w3.org/2000/svg"><path d="M.28 29V1h9.44v20.68h12.64V29H.28Zm38.977.64c-2.267 0-4.373-.36-6.32-1.08-1.92-.72-3.587-1.733-5-3.04a14.534 14.534 0 0 1-3.32-4.68c-.774-1.787-1.16-3.733-1.16-5.84 0-2.133.386-4.08 1.16-5.84a14.09 14.09 0 0 1 3.32-4.64c1.413-1.333 3.08-2.36 5-3.08C34.884.72 36.99.36 39.257.36c2.293 0 4.4.36 6.32 1.08 1.92.72 3.587 1.747 5 3.08a13.61 13.61 0 0 1 3.28 4.64c.8 1.76 1.2 3.707 1.2 5.84 0 2.107-.4 4.053-1.2 5.84a14.03 14.03 0 0 1-3.28 4.68c-1.413 1.307-3.08 2.32-5 3.04-1.92.72-4.027 1.08-6.32 1.08Zm0-7.64c.88 0 1.693-.16 2.44-.48a5.79 5.79 0 0 0 2-1.36 6.382 6.382 0 0 0 1.36-2.2c.32-.88.48-1.867.48-2.96s-.16-2.067-.48-2.92c-.32-.88-.774-1.613-1.36-2.2a5.547 5.547 0 0 0-2-1.4 6.129 6.129 0 0 0-2.44-.48c-.88 0-1.707.16-2.48.48a6.043 6.043 0 0 0-2 1.4c-.56.587-1 1.32-1.32 2.2-.32.853-.48 1.827-.48 2.92s.16 2.08.48 2.96c.32.853.76 1.587 1.32 2.2a6.336 6.336 0 0 0 2 1.36c.773.32 1.6.48 2.48.48Zm33.746 7.64c-2.266 0-4.36-.347-6.28-1.04-1.893-.72-3.547-1.733-4.96-3.04a13.875 13.875 0 0 1-3.24-4.64c-.773-1.787-1.16-3.76-1.16-5.92s.387-4.133 1.16-5.92a13.61 13.61 0 0 1 3.28-4.64c1.414-1.307 3.08-2.307 5-3 1.947-.72 4.08-1.08 6.4-1.08 2.773 0 5.24.467 7.4 1.4 2.187.933 3.987 2.267 5.4 4l-6.04 5.32c-.88-1.013-1.84-1.773-2.88-2.28-1.013-.533-2.147-.8-3.4-.8-1.04 0-1.987.16-2.84.48a5.777 5.777 0 0 0-2.12 1.4 6.382 6.382 0 0 0-1.36 2.2c-.32.853-.48 1.827-.48 2.92 0 1.04.16 2 .48 2.88.32.853.773 1.587 1.36 2.2a6.327 6.327 0 0 0 2.08 1.44c.827.32 1.747.48 2.76.48a9.573 9.573 0 0 0 3.12-.52c1.013-.373 2.093-1 3.24-1.88l5.28 6.48c-1.707 1.147-3.653 2.027-5.84 2.64-2.186.613-4.306.92-6.36.92Zm4-4.76V14.24h8.2v11.84l-8.2-1.2Zm26.902 4.76c-2.266 0-4.373-.36-6.32-1.08-1.92-.72-3.586-1.733-5-3.04a14.535 14.535 0 0 1-3.32-4.68c-.773-1.787-1.16-3.733-1.16-5.84 0-2.133.387-4.08 1.16-5.84a14.091 14.091 0 0 1 3.32-4.64c1.414-1.333 3.08-2.36 5-3.08 1.947-.72 4.054-1.08 6.32-1.08 2.294 0 4.4.36 6.32 1.08 1.92.72 3.587 1.747 5 3.08a13.595 13.595 0 0 1 3.28 4.64c.8 1.76 1.2 3.707 1.2 5.84 0 2.107-.4 4.053-1.2 5.84a14.013 14.013 0 0 1-3.28 4.68c-1.413 1.307-3.08 2.32-5 3.04-1.92.72-4.026 1.08-6.32 1.08Zm0-7.64c.88 0 1.694-.16 2.44-.48a5.784 5.784 0 0 0 2-1.36 6.376 6.376 0 0 0 1.36-2.2c.32-.88.48-1.867.48-2.96s-.16-2.067-.48-2.92c-.32-.88-.773-1.613-1.36-2.2a5.54 5.54 0 0 0-2-1.4 6.127 6.127 0 0 0-2.44-.48c-.88 0-1.706.16-2.48.48a6.05 6.05 0 0 0-2 1.4c-.56.587-1 1.32-1.32 2.2-.32.853-.48 1.827-.48 2.92s.16 2.08.48 2.96c.32.853.76 1.587 1.32 2.2a6.344 6.344 0 0 0 2 1.36c.774.32 1.6.48 2.48.48Z" fill="#B2AEF3"/></svg>