<svg width="80" height="80" fill="none" xmlns="http://www.w3.org/2000/svg"><path d="M78.487 36.434 43.557 1.507a5.165 5.165 0 0 0-7.293 0l-7.237 7.25 9.2 9.2c2.15-.716 4.597-.233 6.297 1.47a6.13 6.13 0 0 1 1.46 6.334l8.86 8.866a6.118 6.118 0 0 1 6.333 1.45 6.126 6.126 0 0 1 0 8.68 6.122 6.122 0 0 1-8.666 0 6.154 6.154 0 0 1-1.347-6.653l-8.297-8.253V51.6a6.14 6.14 0 0 1 1.627 1.16c2.377 2.403 2.377 6.276 0 8.666a6.146 6.146 0 0 1-8.697 0 6.114 6.114 0 0 1 0-8.66 6.28 6.28 0 0 1 2.017-1.353V29.45a6.089 6.089 0 0 1-2-1.336 6.112 6.112 0 0 1-1.32-6.697l-9.04-9.083L1.5 36.27c-2 2.017-2 5.28 0 7.297L36.434 78.49a5.15 5.15 0 0 0 7.287 0l34.767-34.766a5.148 5.148 0 0 0 0-7.29Z" fill="#F05032"/></svg>