<svg width="80" height="80" fill="none" xmlns="http://www.w3.org/2000/svg"><path d="M77.167 8.623 60.7.7a4.908 4.908 0 0 0-2.16-.493 4.964 4.964 0 0 0-3.523 1.46L23.484 30.433 9.751 20.006a3.307 3.307 0 0 0-2.012-.676c-.865 0-1.652.329-2.244.869l-4.404 4.004A3.326 3.326 0 0 0 0 26.67c0 .975.418 1.852 1.085 2.462l.003.002L12.998 40 1.088 50.867A3.326 3.326 0 0 0 0 53.33c0 .976.42 1.854 1.089 2.464l.002.002 4.41 4.003c.59.538 1.377.867 2.241.867.76 0 1.46-.254 2.02-.683l-.008.006 13.734-10.426L55.02 78.329c.9.902 2.145 1.46 3.52 1.46.786 0 1.529-.182 2.19-.506l-.03.013 16.473-7.924C78.86 70.545 80 68.84 80 66.87V13.13a5 5 0 0 0-2.804-4.494l-.03-.013ZM60.014 58.16 36.087 40l23.927-18.16v36.32Z" fill="#007ACC"/></svg>