<svg width="80" height="80" fill="none" xmlns="http://www.w3.org/2000/svg"><path d="M40 0c22.09 0 40 17.91 40 40S62.09 80 40 80 0 62.09 0 40 17.91 0 40 0Zm-7.95 53.327c.583 2.15.52 4.16-.08 5.973l-.217.6c-.08.203-.173.4-.26.587a11.214 11.214 0 0 1-1.85 2.7c-2.326 2.53-5.573 3.49-6.966 2.683-1.5-.873-.754-4.45 1.946-7.3 2.904-3.06 7.067-5.03 7.067-5.03v-.01l.36-.203Zm33.037-36.204c-1.807-7.11-13.59-9.446-24.74-5.483-6.63 2.357-13.814 6.06-18.977 10.89-6.143 5.737-7.12 10.737-6.717 12.827 1.424 7.37 11.524 12.19 15.677 15.766v.02c-1.223.6-10.187 5.097-12.287 9.75-2.25 4.9.35 8.404 2.05 8.85 5.25 1.454 10.65-1.2 13.55-5.496 2.8-4.204 2.554-9.604 1.347-12.254 1.653-.45 3.6-.65 6.1-.346 7.003.8 8.403 5.2 8.1 7-.3 1.796-1.743 2.846-2.247 3.146-.5.304-.65.4-.603.604.05.3.303.3.7.25.55-.1 3.653-1.5 3.803-4.904.15-4.3-3.953-9.096-11.25-9-3 .054-4.903.304-6.25.854-.1-.15-.203-.25-.35-.35-4.5-4.85-12.85-8.25-12.5-14.7.1-2.35.95-8.547 16-16.047 12.35-6.153 22.204-4.45 23.904-.7 2.443 5.347-5.254 15.3-18.104 16.747-4.9.55-7.45-1.347-8.103-2.05-.697-.75-.797-.8-1.047-.647-.4.2-.15.85 0 1.25.4 1 1.95 2.75 4.654 3.65 2.346.75 8.1 1.197 15-1.5 7.746-2.997 13.796-11.35 12.046-18.35l.244.223Z" fill="#C69"/></svg>