<svg width="111" height="80" fill="none" xmlns="http://www.w3.org/2000/svg"><path d="M22.29 64.387c-3.164 0-6.032-2.59-6.032-5.736 0-3.145 2.59-5.75 6.037-5.75 3.46 0 6.06 2.591 6.06 5.746 0 3.154-2.878 5.736-6.065 5.74Zm74.065-31.283c-.624-4.588-3.469-8.326-7.216-11.194l-1.457-1.156-1.175 1.434c-2.285 2.59-3.191 7.183-2.914 10.616.278 2.6 1.11 5.18 2.563 7.188-1.175.601-2.628 1.156-3.747 1.744-2.637.865-5.2 1.156-7.771 1.156H.443l-.277 1.711c-.555 5.468.277 11.194 2.6 16.375l1.128 2.012v.278c6.938 11.485 19.289 16.652 32.74 16.652 25.876 0 47.098-11.194 57.159-35.307 6.591.287 13.247-1.434 16.374-7.753l.833-1.434-1.388-.865c-3.746-2.285-8.881-2.59-13.183-1.434l-.074-.023Zm-37.042-4.588h-11.23V39.71h11.24V28.506l-.01.01Zm0-14.076h-11.23v11.194h11.24v-11.18l-.01-.014Zm0-14.358h-11.23v11.194h11.24V.082h-.01Zm13.738 28.434H61.885V39.71H73.08V28.506l-.028.01Zm-41.62 0H20.268V39.71h11.203V28.506l-.042.01Zm14.015 0H34.344V39.71H45.51V28.506l-.064.01Zm-27.893 0H6.47V39.71h11.232V28.506l-.149.01ZM45.446 14.44H34.344v11.194H45.51v-11.18l-.064-.014Zm-14.085 0H20.287v11.194H31.45v-11.18l-.088-.014Z" fill="#1488C6"/></svg>