<svg width="80" height="80" fill="none" xmlns="http://www.w3.org/2000/svg"><path d="M0 0v80h80V0H0Zm3.333 3.419h73.334V76.58H3.333V3.42Zm24.417 41.88-2.64 10.25c-.057.283-.167.348-.493.348h-4.894c-.333 0-.383-.112-.333-.506l9.467-34c.166-.615.273-1.155.326-2.847 0-.226.11-.342.277-.342h6.986c.22 0 .334.061.387.342L47.45 55.446c.056.284 0 .451-.277.451h-5.5c-.276 0-.44-.068-.493-.294l-2.75-10.307-10.68.003Zm9.293-5.555c-.933-3.782-3.133-12.062-3.96-16.069h-.056c-.714 4-2.474 10.77-3.85 16.069h7.866Zm15-19.002c0-2.198 1.484-3.498 3.41-3.498 2.034 0 3.41 1.409 3.41 3.498 0 2.256-1.433 3.497-3.466 3.497-2 0-3.367-1.24-3.354-3.497Zm.374 7.774c0-.273.11-.376.386-.376h5.234c.293 0 .4.113.4.397v26.991c0 .284-.054.397-.384.397h-5.166c-.334 0-.444-.171-.444-.445l-.026-26.964Z" fill="#FF7C00"/></svg>