<svg width="80" height="80" fill="none" xmlns="http://www.w3.org/2000/svg"><path d="M65.833 0H14.167C6.333 0 0 6.496 0 14.53v50.94C0 73.504 6.333 80 14.167 80h51.666C73.667 80 80 73.504 80 65.47V14.53C80 6.496 73.667 0 65.833 0Zm10.8 64.137v.058c0 6.837-5.4 12.38-12.066 12.386H15.433c-6.666 0-12.1-5.572-12.1-12.41V15.829c0-6.838 5.434-12.41 12.1-12.41h49.1c6.683 0 12.1 5.556 12.1 12.41v48.308Zm-45-26.701 9.334 18.393c.166.274.066.547-.2.547h-5.8c-.367 0-.534-.102-.7-.444-2.134-4.513-4.3-9.026-6.534-13.88h-.066c-2 4.58-4.2 9.401-6.334 13.914-.166.273-.333.376-.6.376h-5.5c-.333 0-.366-.274-.2-.479l9.134-17.846-8.834-18.051c-.2-.274 0-.479.2-.479h5.734c.333 0 .466.069.6.376 2.1 4.513 4.233 9.163 6.233 13.71h.067c1.933-4.513 4.066-9.197 6.133-13.676.167-.273.267-.444.6-.444h5.367c.266 0 .366.205.2.479l-8.834 17.504ZM42.6 43.009c0-7.966 5.167-14.189 13.367-14.189.7 0 1.066 0 1.733.069v-9.06c0-.205.167-.342.333-.342H63.3c.267 0 .333.103.333.274v31.384c0 .923 0 2.086.167 3.35 0 .206-.067.274-.267.377A19.443 19.443 0 0 1 55 56.855c-7.233.034-12.4-4.547-12.4-13.846Zm15.1-8.753c-.467-.205-1.133-.342-1.933-.342-4.2 0-7.134 3.317-7.134 8.821 0 6.29 3 8.82 6.767 8.82.8 0 1.666-.102 2.3-.376V34.257Z" fill="#FF2BC2"/></svg>