<svg width="80" height="80" fill="none" xmlns="http://www.w3.org/2000/svg"><path d="M0 0v80h80V0H0Zm3.333 3.419h73.334V76.58H3.333V3.42Zm16 15.316c0-.23.467-.396.747-.396 2.147-.113 5.293-.171 8.593-.171 9.24 0 12.834 5.196 12.834 11.85 0 8.683-6.14 12.41-13.674 12.41-1.266 0-1.7-.059-2.583-.059v13.135c0 .284-.11.397-.383.397H19.72c-.277 0-.383-.103-.383-.386l-.004-36.78Zm5.917 18.16c.767.055 1.373.055 2.7.055 3.9 0 7.567-1.408 7.567-6.824 0-4.341-2.62-6.543-7.074-6.543-1.32 0-2.583.055-3.19.113l-.003 13.2Zm28.69-4.06c-2.64 0-3.52 1.353-3.52 2.481 0 1.241.6 2.086 4.123 3.949 5.227 2.598 6.874 5.077 6.874 8.742 0 5.47-4.067 8.41-9.567 8.41-2.92 0-5.4-.626-6.833-1.47-.217-.113-.267-.28-.267-.564v-5.016c0-.341.16-.454.38-.287 2.08 1.412 4.507 2.031 6.707 2.031 2.64 0 3.74-1.128 3.74-2.653 0-1.24-.767-2.314-4.124-4.12-4.733-2.324-6.713-4.683-6.713-8.639 0-4.4 3.353-8.068 9.183-8.068 2.867 0 4.88.451 5.98.957.274.171.334.451.334.677v4.684c0 .284-.167.455-.5.342-1.48-.903-3.667-1.47-5.797-1.457Z" fill="#00C8FF"/></svg>