<svg width="80" height="80" fill="none" xmlns="http://www.w3.org/2000/svg"><path d="M0 0h80v80H0V0Zm73.447 60.92c-.584-3.65-2.96-6.717-10.01-9.577-2.454-1.15-5.18-1.95-5.99-3.8-.304-1.1-.35-1.7-.154-2.35.5-2.153 3.05-2.8 5.05-2.2 1.3.4 2.5 1.4 3.254 3 3.446-2.253 3.446-2.253 5.85-3.75-.9-1.4-1.347-2.003-1.954-2.6-2.1-2.35-4.896-3.55-9.446-3.446l-2.35.296c-2.254.55-4.4 1.75-5.7 3.35-3.8 4.304-2.704 11.804 1.896 14.904 4.55 3.4 11.204 4.146 12.054 7.35.8 3.9-2.9 5.15-6.554 4.7-2.703-.6-4.2-1.954-5.85-4.454l-6.1 3.504c.7 1.6 1.5 2.296 2.7 3.696 5.8 5.854 20.3 5.554 22.904-3.346.096-.3.8-2.35.246-5.5l.154.223ZM43.503 36.77H36.01c0 6.46-.03 12.88-.03 19.35 0 4.107.21 7.877-.46 9.037-1.1 2.296-3.933 2.003-5.22 1.6-1.32-.654-1.99-1.554-2.767-2.85-.21-.35-.366-.654-.423-.654l-6.083 3.75c1.016 2.1 2.5 3.907 4.413 5.057 2.85 1.7 6.68 2.25 10.69 1.35 2.61-.753 4.86-2.303 6.037-4.703 1.7-3.1 1.34-6.9 1.323-11.154.04-6.846 0-13.696 0-20.596l.013-.187Z" fill="#F7DF1E"/></svg>