<svg width="80" height="80" fill="none" xmlns="http://www.w3.org/2000/svg"><path d="M40 0C17.9 0 0 18.365 0 41.016 0 59.14 11.46 74.512 27.35 79.929c2 .386 2.733-.882 2.733-1.972 0-.974-.033-3.555-.05-6.973-11.126 2.475-13.473-5.503-13.473-5.503-1.82-4.733-4.45-5.998-4.45-5.998-3.623-2.543.28-2.492.28-2.492 4.017.287 6.127 4.225 6.127 4.225 3.566 6.272 9.363 4.46 11.65 3.41.36-2.651 1.39-4.46 2.533-5.485-8.883-1.025-18.22-4.553-18.22-20.268 0-4.478 1.55-8.135 4.117-11.006-.45-1.036-1.8-5.206.35-10.856 0 0 3.35-1.1 11 4.204 3.2-.912 6.6-1.363 10-1.384 3.4.02 6.8.472 10 1.384 7.6-5.304 10.95-4.204 10.95-4.204 2.15 5.65.8 9.82.4 10.856 2.55 2.87 4.1 6.528 4.1 11.006 0 15.756-9.35 19.226-18.25 20.234 1.4 1.23 2.7 3.746 2.7 7.588 0 5.49-.05 9.898-.05 11.231 0 1.077.7 2.359 2.75 1.948C68.55 74.495 80 59.114 80 41.017 80 18.365 62.09 0 40 0Z" fill="#fff"/></svg>