<svg width="36" height="82" fill="none" xmlns="http://www.w3.org/2000/svg"><path d="m28.54 65.816 2.124-3.62s-4.822 1.973-12.89 1.973c-8.074 0-12.822-1.896-12.822-1.896l2.374 3.95.842 12.452c0 1.346 4.388 2.397 9.804 2.397 5.42 0 9.81-1.048 9.81-2.397l.765-12.806-.007-.053Zm2.054-23.529c-2.568.154-3.85 3.016-5.14 6.028-.477 1.102-2.103 5.8-3.165 5.219-1.062-.578 1.38-4.438 2.067-6.735-.791.58-3.69 2.835-4.438.718-1.195 1.048-3.77 1.602-3.48-1.1-.637 1.153-2.073 2.75-3.802 2.051-2.248-.851 1.319-8.05 2.204-7.703.888.404-.178 2.003-.455 2.65-.62 1.4-1.329 3.2-.851 3.55.801.648 3.018-2.347 3.069-2.4.414-.551 1.599-4.104 2.547-3.697.952.448-2.374 5.146-1.135 6.097.254.2 1.279-.1 1.9-.798.4-.4.26-1.402 1.6-4.601 1.348-3.202 2.55-7.2 3.469-6.899.918.3.164 2.348-.17 3.15-1.55 3.599-4.234 9.496-2.972 9.048 1.249-.45 1.9-.45 3.149-1.9 1.249-1.449 1.152-3.846 2-3.796.801.047.701.848.5 1.396.802-.902 3.848-2.899 4.552-.949.848 2.298-4.354 5.65-3.052 5.45 1.252-.15 3.3-1.45 4.2-2.648l2.402-21.705s-2.451 2.003-17.902 2.003c-15.45 0-17.644-1.95-17.644-1.95l2.047 19.802c1.102-3.099 3.7-9.397 7.753-9.15 1.85.1 4.351 3.704 2.198 3.804-.902.05-1.002-1.8-2.05-2.05-.799-.154-1.85.45-2.548 1.152-1.35 1.349-4.355 6.698-3.954 9.353.5 3.399 4.698-1.156 5.4-2.505.497-.945.848-3.8 1.896-3.5 1.102.301-.097 3.253-.901 5.801-.902 2.902-1.35 5.947-2.445 5.596-1.102-.347.698-4.097.595-4.748-1.046.998-2.949 3.406-5.447 2.2l1.25 12.352s3.402 2.648 13.6 2.648 13.75-2.648 13.75-2.648l1.6-14.301c-1.299 1.302-5.4 3.55-5.65 1.001-.197-2.05 4.451-5.002 3.253-5.055l.2-.23Zm5.26-39.125-8.88 9.35-1.623 6.348C31.632 19.26 36 20.148 36 21.177c0 1.399-8.06 2.528-18.002 2.528C8.058 23.705 0 22.559 0 21.157c0-1.4 8.06-2.551 18.002-2.551 1.412 0 2.818 0 4.22.053l1.874-7.6 9.433-10c.227-.301.935-.05 1.583.5.648.498.998 1.149.798 1.45v.1l-.057.053ZM23.05 22.512s-1.747 0-2.037-.267a.468.468 0 0 1-.12-.3c0-.194.13-.304.3-.367l.147.25c-.07.02-.097.05-.11.077 0 .137 1.048.23 1.853.22.798-.01 1.773-.076 1.78-.213 0-.04-.077-.077-.204-.11l.15-.241c.21.067.39.194.39.404 0 .367-.47.427-.767.47-.357.05-1.376.078-1.376.078h-.006Z" fill="#DA4648"/></svg>